<mxfile host="app.diagrams.net" modified="2022-08-10T07:00:55.021Z" agent="5.0 (Macintosh)" etag="-8NhJIWlHdvcstcuHxPW" version="20.2.2" type="github">
  <diagram id="j_vWOgn5VXH2J73FNR7c" name="Page-1">
    <mxGraphModel dx="1426" dy="1895" grid="1" gridSize="10" guides="1" tooltips="1" connect="1" arrows="1" fold="1" page="1" pageScale="1" pageWidth="850" pageHeight="1100" math="0" shadow="0">
      <root>
        <mxCell id="0" />
        <mxCell id="1" parent="0" />
        <mxCell id="scPvxUvN-RZS57z3FRkP-1" value="" style="rounded=1;whiteSpace=wrap;html=1;" vertex="1" parent="1">
          <mxGeometry x="120" y="640" width="600" height="120" as="geometry" />
        </mxCell>
        <mxCell id="scPvxUvN-RZS57z3FRkP-2" value="Doris" style="shape=cylinder3;whiteSpace=wrap;html=1;boundedLbl=1;backgroundOutline=1;size=15;" vertex="1" parent="1">
          <mxGeometry x="361.14" y="651.67" width="72.5" height="96.67" as="geometry" />
        </mxCell>
        <mxCell id="scPvxUvN-RZS57z3FRkP-5" value="" style="rounded=1;whiteSpace=wrap;html=1;" vertex="1" parent="1">
          <mxGeometry x="125" y="420" width="600" height="120" as="geometry" />
        </mxCell>
        <mxCell id="scPvxUvN-RZS57z3FRkP-9" value="Signatures" style="rounded=1;whiteSpace=wrap;html=1;" vertex="1" parent="scPvxUvN-RZS57z3FRkP-5">
          <mxGeometry x="430" y="39.52" width="111.25" height="42.98" as="geometry" />
        </mxCell>
        <mxCell id="scPvxUvN-RZS57z3FRkP-8" value="ContractAbi" style="rounded=1;whiteSpace=wrap;html=1;" vertex="1" parent="scPvxUvN-RZS57z3FRkP-5">
          <mxGeometry x="240" y="37.5" width="120" height="45" as="geometry" />
        </mxCell>
        <mxCell id="scPvxUvN-RZS57z3FRkP-13" value="" style="endArrow=classic;html=1;rounded=0;" edge="1" parent="scPvxUvN-RZS57z3FRkP-5" target="scPvxUvN-RZS57z3FRkP-2">
          <mxGeometry width="50" height="50" relative="1" as="geometry">
            <mxPoint x="300" y="82.5" as="sourcePoint" />
            <mxPoint x="340" y="182.5" as="targetPoint" />
          </mxGeometry>
        </mxCell>
        <mxCell id="scPvxUvN-RZS57z3FRkP-10" value="Contract" style="rounded=1;whiteSpace=wrap;html=1;" vertex="1" parent="1">
          <mxGeometry x="171.25" y="457.5" width="120" height="45" as="geometry" />
        </mxCell>
        <mxCell id="scPvxUvN-RZS57z3FRkP-17" value="" style="endArrow=classic;html=1;rounded=0;exitX=0.593;exitY=1.012;exitDx=0;exitDy=0;exitPerimeter=0;" edge="1" parent="1" source="scPvxUvN-RZS57z3FRkP-9" target="scPvxUvN-RZS57z3FRkP-2">
          <mxGeometry width="50" height="50" relative="1" as="geometry">
            <mxPoint x="490" y="520" as="sourcePoint" />
            <mxPoint x="536.25" y="651.6599999999999" as="targetPoint" />
          </mxGeometry>
        </mxCell>
        <mxCell id="scPvxUvN-RZS57z3FRkP-22" value="" style="rounded=1;whiteSpace=wrap;html=1;" vertex="1" parent="1">
          <mxGeometry x="125" y="20" width="600" height="260" as="geometry" />
        </mxCell>
        <mxCell id="scPvxUvN-RZS57z3FRkP-34" style="edgeStyle=orthogonalEdgeStyle;rounded=0;orthogonalLoop=1;jettySize=auto;html=1;exitX=0;exitY=0.5;exitDx=0;exitDy=0;entryX=0.25;entryY=0;entryDx=0;entryDy=0;" edge="1" parent="1" source="scPvxUvN-RZS57z3FRkP-31" target="scPvxUvN-RZS57z3FRkP-10">
          <mxGeometry relative="1" as="geometry" />
        </mxCell>
        <mxCell id="scPvxUvN-RZS57z3FRkP-42" style="edgeStyle=orthogonalEdgeStyle;rounded=0;orthogonalLoop=1;jettySize=auto;html=1;exitX=0.5;exitY=1;exitDx=0;exitDy=0;" edge="1" parent="1" source="scPvxUvN-RZS57z3FRkP-31" target="scPvxUvN-RZS57z3FRkP-35">
          <mxGeometry relative="1" as="geometry" />
        </mxCell>
        <mxCell id="scPvxUvN-RZS57z3FRkP-31" value="Reader(inherit from log-updater)" style="rounded=1;whiteSpace=wrap;html=1;" vertex="1" parent="1">
          <mxGeometry x="262.5" y="30" width="120" height="45" as="geometry" />
        </mxCell>
        <mxCell id="scPvxUvN-RZS57z3FRkP-35" value="AbiDecompile" style="rounded=1;whiteSpace=wrap;html=1;" vertex="1" parent="1">
          <mxGeometry x="262.5" y="160" width="120" height="45" as="geometry" />
        </mxCell>
        <mxCell id="scPvxUvN-RZS57z3FRkP-51" value="&lt;div&gt;1.2 read data&lt;/div&gt;&lt;div&gt;from DB&lt;br&gt;&lt;/div&gt;" style="text;html=1;strokeColor=none;fillColor=none;align=center;verticalAlign=middle;whiteSpace=wrap;rounded=0;rotation=55;" vertex="1" parent="1">
          <mxGeometry x="490" y="310" width="94.49" height="30" as="geometry" />
        </mxCell>
        <mxCell id="scPvxUvN-RZS57z3FRkP-54" value="" style="endArrow=classic;html=1;rounded=0;entryX=0.433;entryY=-0.033;entryDx=0;entryDy=0;entryPerimeter=0;exitX=0.5;exitY=1;exitDx=0;exitDy=0;" edge="1" parent="1" source="scPvxUvN-RZS57z3FRkP-35" target="scPvxUvN-RZS57z3FRkP-8">
          <mxGeometry width="50" height="50" relative="1" as="geometry">
            <mxPoint x="300" y="220" as="sourcePoint" />
            <mxPoint x="350" y="170" as="targetPoint" />
          </mxGeometry>
        </mxCell>
        <mxCell id="scPvxUvN-RZS57z3FRkP-56" value="Ethereum Scan" style="rounded=1;whiteSpace=wrap;html=1;" vertex="1" parent="1">
          <mxGeometry x="550" y="-90" width="111.25" height="42.98" as="geometry" />
        </mxCell>
        <mxCell id="scPvxUvN-RZS57z3FRkP-57" value="" style="endArrow=classic;html=1;rounded=0;exitX=0.5;exitY=0;exitDx=0;exitDy=0;entryX=1;entryY=0.5;entryDx=0;entryDy=0;" edge="1" parent="1" source="scPvxUvN-RZS57z3FRkP-9" target="scPvxUvN-RZS57z3FRkP-35">
          <mxGeometry width="50" height="50" relative="1" as="geometry">
            <mxPoint x="520" y="390" as="sourcePoint" />
            <mxPoint x="570" y="340" as="targetPoint" />
          </mxGeometry>
        </mxCell>
        <mxCell id="scPvxUvN-RZS57z3FRkP-60" value="" style="endArrow=classic;html=1;rounded=0;entryX=1;entryY=0.5;entryDx=0;entryDy=0;exitX=0.25;exitY=1;exitDx=0;exitDy=0;" edge="1" parent="1" source="scPvxUvN-RZS57z3FRkP-56" target="scPvxUvN-RZS57z3FRkP-35">
          <mxGeometry width="50" height="50" relative="1" as="geometry">
            <mxPoint x="460" y="-40" as="sourcePoint" />
            <mxPoint x="390" y="140" as="targetPoint" />
          </mxGeometry>
        </mxCell>
        <mxCell id="scPvxUvN-RZS57z3FRkP-62" value="1.1 update contract table" style="text;html=1;strokeColor=none;fillColor=none;align=center;verticalAlign=middle;whiteSpace=wrap;rounded=0;rotation=90;" vertex="1" parent="1">
          <mxGeometry x="120" y="190" width="120" height="30" as="geometry" />
        </mxCell>
        <mxCell id="scPvxUvN-RZS57z3FRkP-65" value="1.3 read abi from scan" style="text;html=1;strokeColor=none;fillColor=none;align=center;verticalAlign=middle;whiteSpace=wrap;rounded=0;rotation=-45;" vertex="1" parent="1">
          <mxGeometry x="400" y="37.5" width="80" height="30" as="geometry" />
        </mxCell>
        <mxCell id="scPvxUvN-RZS57z3FRkP-67" value="1.5 update contract_abi table" style="text;html=1;strokeColor=none;fillColor=none;align=center;verticalAlign=middle;whiteSpace=wrap;rounded=0;rotation=70;" vertex="1" parent="1">
          <mxGeometry x="291.25" y="323.58" width="110" height="30" as="geometry" />
        </mxCell>
        <mxCell id="scPvxUvN-RZS57z3FRkP-69" value="" style="endArrow=classic;html=1;rounded=0;entryX=0.053;entryY=0.076;entryDx=0;entryDy=0;entryPerimeter=0;exitX=0.192;exitY=0.75;exitDx=0;exitDy=0;exitPerimeter=0;" edge="1" parent="1" source="scPvxUvN-RZS57z3FRkP-5" target="scPvxUvN-RZS57z3FRkP-2">
          <mxGeometry width="50" height="50" relative="1" as="geometry">
            <mxPoint x="240" y="570" as="sourcePoint" />
            <mxPoint x="290" y="520" as="targetPoint" />
          </mxGeometry>
        </mxCell>
        <mxCell id="scPvxUvN-RZS57z3FRkP-70" value="" style="endArrow=classic;html=1;rounded=0;entryX=0.351;entryY=-0.082;entryDx=0;entryDy=0;exitX=1;exitY=0.75;exitDx=0;exitDy=0;entryPerimeter=0;" edge="1" parent="1" source="scPvxUvN-RZS57z3FRkP-35" target="scPvxUvN-RZS57z3FRkP-9">
          <mxGeometry width="50" height="50" relative="1" as="geometry">
            <mxPoint x="380" y="250" as="sourcePoint" />
            <mxPoint x="430" y="200" as="targetPoint" />
          </mxGeometry>
        </mxCell>
        <mxCell id="scPvxUvN-RZS57z3FRkP-72" value="1.4 update signatures table" style="text;html=1;strokeColor=none;fillColor=none;align=center;verticalAlign=middle;whiteSpace=wrap;rounded=0;rotation=55;" vertex="1" parent="1">
          <mxGeometry x="425" y="323.58" width="100" height="30" as="geometry" />
        </mxCell>
      </root>
    </mxGraphModel>
  </diagram>
</mxfile>
